<mxfile host="app.diagrams.net" modified="2023-10-25T17:51:36.690Z" agent="Mozilla/5.0 (Windows NT 10.0; Win64; x64) AppleWebKit/537.36 (KHTML, like Gecko) Chrome/116.0.0.0 Safari/537.36 OPR/102.0.0.0" etag="vXYt2kJsYXZQG0Ks89f_" version="22.0.8" type="device">
  <diagram name="Page-1" id="XEkPOjl-qdYywtE6vLCS">
    <mxGraphModel dx="3561" dy="2152" grid="0" gridSize="10" guides="1" tooltips="1" connect="1" arrows="1" fold="1" page="1" pageScale="1" pageWidth="1169" pageHeight="827" math="0" shadow="0">
      <root>
        <mxCell id="0" />
        <mxCell id="1" parent="0" />
        <mxCell id="XAGscL4qcdgKMVp_RCEQ-3" value="" style="group" vertex="1" connectable="0" parent="1">
          <mxGeometry x="400" y="210" width="230" height="310" as="geometry" />
        </mxCell>
        <mxCell id="XAGscL4qcdgKMVp_RCEQ-1" value="" style="rounded=0;whiteSpace=wrap;html=1;rotation=90;" vertex="1" parent="XAGscL4qcdgKMVp_RCEQ-3">
          <mxGeometry x="-35" y="45" width="310" height="220" as="geometry" />
        </mxCell>
        <mxCell id="XAGscL4qcdgKMVp_RCEQ-2" value="&lt;font style=&quot;font-size: 10px;&quot;&gt;&amp;lt;&amp;lt;Subsystem&amp;gt;&amp;gt;&lt;br&gt;&lt;b&gt;Event&lt;/b&gt;&lt;/font&gt;" style="text;html=1;align=center;verticalAlign=middle;resizable=0;points=[];autosize=1;strokeColor=none;fillColor=none;" vertex="1" parent="XAGscL4qcdgKMVp_RCEQ-3">
          <mxGeometry width="100" height="40" as="geometry" />
        </mxCell>
        <mxCell id="XAGscL4qcdgKMVp_RCEQ-5" value="Modify Event" style="ellipse;whiteSpace=wrap;html=1;" vertex="1" parent="XAGscL4qcdgKMVp_RCEQ-3">
          <mxGeometry x="23" y="268" width="80" height="30" as="geometry" />
        </mxCell>
        <mxCell id="XAGscL4qcdgKMVp_RCEQ-15" value="Account" style="ellipse;whiteSpace=wrap;html=1;" vertex="1" parent="XAGscL4qcdgKMVp_RCEQ-3">
          <mxGeometry x="130" y="12.86" width="74.99" height="32.14" as="geometry" />
        </mxCell>
        <mxCell id="XAGscL4qcdgKMVp_RCEQ-20" value="Invitation" style="ellipse;whiteSpace=wrap;html=1;" vertex="1" parent="XAGscL4qcdgKMVp_RCEQ-3">
          <mxGeometry x="132.5" y="82" width="70" height="30" as="geometry" />
        </mxCell>
        <mxCell id="XAGscL4qcdgKMVp_RCEQ-21" value="&amp;lt;&amp;lt;include&amp;gt;&amp;gt;" style="endArrow=open;endSize=12;dashed=1;html=1;rounded=0;exitX=0.5;exitY=0;exitDx=0;exitDy=0;entryX=0.5;entryY=1;entryDx=0;entryDy=0;" edge="1" parent="XAGscL4qcdgKMVp_RCEQ-3" source="XAGscL4qcdgKMVp_RCEQ-20" target="XAGscL4qcdgKMVp_RCEQ-15">
          <mxGeometry width="160" relative="1" as="geometry">
            <mxPoint x="60" y="150" as="sourcePoint" />
            <mxPoint x="220" y="150" as="targetPoint" />
          </mxGeometry>
        </mxCell>
        <mxCell id="XAGscL4qcdgKMVp_RCEQ-26" value="Assign role" style="ellipse;whiteSpace=wrap;html=1;" vertex="1" parent="XAGscL4qcdgKMVp_RCEQ-3">
          <mxGeometry x="132.5" y="152" width="70" height="30" as="geometry" />
        </mxCell>
        <mxCell id="XAGscL4qcdgKMVp_RCEQ-27" value="&amp;lt;&amp;lt;include&amp;gt;&amp;gt;" style="endArrow=open;endSize=12;dashed=1;html=1;rounded=0;exitX=0.5;exitY=0;exitDx=0;exitDy=0;entryX=0.5;entryY=1;entryDx=0;entryDy=0;" edge="1" parent="XAGscL4qcdgKMVp_RCEQ-3" source="XAGscL4qcdgKMVp_RCEQ-26" target="XAGscL4qcdgKMVp_RCEQ-20">
          <mxGeometry width="160" relative="1" as="geometry">
            <mxPoint x="90.5" y="182" as="sourcePoint" />
            <mxPoint x="89.5" y="137" as="targetPoint" />
          </mxGeometry>
        </mxCell>
        <mxCell id="XAGscL4qcdgKMVp_RCEQ-33" value="Create Event" style="ellipse;whiteSpace=wrap;html=1;" vertex="1" parent="XAGscL4qcdgKMVp_RCEQ-3">
          <mxGeometry x="23" y="228" width="80" height="30" as="geometry" />
        </mxCell>
        <mxCell id="XAGscL4qcdgKMVp_RCEQ-37" value="Delete Event" style="ellipse;whiteSpace=wrap;html=1;" vertex="1" parent="XAGscL4qcdgKMVp_RCEQ-3">
          <mxGeometry x="23" y="189" width="80" height="30" as="geometry" />
        </mxCell>
        <mxCell id="XAGscL4qcdgKMVp_RCEQ-10" style="edgeStyle=orthogonalEdgeStyle;orthogonalLoop=1;jettySize=auto;html=1;entryX=0;entryY=0.5;entryDx=0;entryDy=0;rounded=0;strokeColor=default;endArrow=none;endFill=0;" edge="1" parent="1" source="XAGscL4qcdgKMVp_RCEQ-4" target="XAGscL4qcdgKMVp_RCEQ-5">
          <mxGeometry relative="1" as="geometry" />
        </mxCell>
        <mxCell id="XAGscL4qcdgKMVp_RCEQ-22" style="edgeStyle=orthogonalEdgeStyle;rounded=0;orthogonalLoop=1;jettySize=auto;html=1;entryX=0;entryY=0.5;entryDx=0;entryDy=0;endArrow=none;endFill=0;" edge="1" parent="1" source="XAGscL4qcdgKMVp_RCEQ-4" target="XAGscL4qcdgKMVp_RCEQ-20">
          <mxGeometry relative="1" as="geometry">
            <Array as="points">
              <mxPoint x="520" y="365" />
              <mxPoint x="520" y="307" />
            </Array>
          </mxGeometry>
        </mxCell>
        <mxCell id="XAGscL4qcdgKMVp_RCEQ-28" style="edgeStyle=orthogonalEdgeStyle;rounded=0;orthogonalLoop=1;jettySize=auto;html=1;entryX=0;entryY=0.5;entryDx=0;entryDy=0;endArrow=none;endFill=0;" edge="1" parent="1" source="XAGscL4qcdgKMVp_RCEQ-4" target="XAGscL4qcdgKMVp_RCEQ-26">
          <mxGeometry relative="1" as="geometry">
            <Array as="points">
              <mxPoint x="520" y="365" />
              <mxPoint x="520" y="377" />
            </Array>
          </mxGeometry>
        </mxCell>
        <mxCell id="XAGscL4qcdgKMVp_RCEQ-34" style="edgeStyle=orthogonalEdgeStyle;rounded=0;orthogonalLoop=1;jettySize=auto;html=1;entryX=0;entryY=0.5;entryDx=0;entryDy=0;endArrow=none;endFill=0;" edge="1" parent="1" source="XAGscL4qcdgKMVp_RCEQ-4" target="XAGscL4qcdgKMVp_RCEQ-33">
          <mxGeometry relative="1" as="geometry" />
        </mxCell>
        <mxCell id="XAGscL4qcdgKMVp_RCEQ-38" style="edgeStyle=orthogonalEdgeStyle;rounded=0;orthogonalLoop=1;jettySize=auto;html=1;entryX=0;entryY=0.5;entryDx=0;entryDy=0;endArrow=none;endFill=0;" edge="1" parent="1" source="XAGscL4qcdgKMVp_RCEQ-4" target="XAGscL4qcdgKMVp_RCEQ-37">
          <mxGeometry relative="1" as="geometry" />
        </mxCell>
        <mxCell id="XAGscL4qcdgKMVp_RCEQ-4" value="Host" style="shape=umlActor;verticalLabelPosition=bottom;verticalAlign=top;html=1;" vertex="1" parent="1">
          <mxGeometry x="300" y="335" width="30" height="60" as="geometry" />
        </mxCell>
        <mxCell id="XAGscL4qcdgKMVp_RCEQ-25" style="edgeStyle=orthogonalEdgeStyle;rounded=0;orthogonalLoop=1;jettySize=auto;html=1;entryX=1;entryY=0.5;entryDx=0;entryDy=0;endArrow=none;endFill=0;" edge="1" parent="1" source="XAGscL4qcdgKMVp_RCEQ-16" target="XAGscL4qcdgKMVp_RCEQ-15">
          <mxGeometry relative="1" as="geometry" />
        </mxCell>
        <mxCell id="XAGscL4qcdgKMVp_RCEQ-16" value="Participator" style="shape=umlActor;verticalLabelPosition=bottom;verticalAlign=top;html=1;" vertex="1" parent="1">
          <mxGeometry x="690" y="208.93" width="30" height="60" as="geometry" />
        </mxCell>
        <mxCell id="XAGscL4qcdgKMVp_RCEQ-36" style="edgeStyle=orthogonalEdgeStyle;rounded=0;orthogonalLoop=1;jettySize=auto;html=1;entryX=1;entryY=0.5;entryDx=0;entryDy=0;endArrow=none;endFill=0;" edge="1" parent="1" source="XAGscL4qcdgKMVp_RCEQ-29" target="XAGscL4qcdgKMVp_RCEQ-5">
          <mxGeometry relative="1" as="geometry" />
        </mxCell>
        <mxCell id="XAGscL4qcdgKMVp_RCEQ-29" value="Organizer" style="shape=umlActor;verticalLabelPosition=bottom;verticalAlign=top;html=1;" vertex="1" parent="1">
          <mxGeometry x="690" y="414" width="30" height="60" as="geometry" />
        </mxCell>
        <mxCell id="XAGscL4qcdgKMVp_RCEQ-41" value="" style="group" vertex="1" connectable="0" parent="1">
          <mxGeometry x="430" y="-360" width="225" height="315" as="geometry" />
        </mxCell>
        <mxCell id="XAGscL4qcdgKMVp_RCEQ-39" value="" style="rounded=0;whiteSpace=wrap;html=1;rotation=90;" vertex="1" parent="XAGscL4qcdgKMVp_RCEQ-41">
          <mxGeometry x="-40" y="50" width="310" height="220" as="geometry" />
        </mxCell>
        <mxCell id="XAGscL4qcdgKMVp_RCEQ-40" value="&amp;lt;&amp;lt;Subsystem&amp;gt;&amp;gt;&lt;br&gt;&lt;b&gt;Chat&lt;/b&gt;" style="text;html=1;align=center;verticalAlign=middle;resizable=0;points=[];autosize=1;strokeColor=none;fillColor=none;" vertex="1" parent="XAGscL4qcdgKMVp_RCEQ-41">
          <mxGeometry width="110" height="40" as="geometry" />
        </mxCell>
        <mxCell id="XAGscL4qcdgKMVp_RCEQ-42" value="Event" style="ellipse;whiteSpace=wrap;html=1;" vertex="1" parent="XAGscL4qcdgKMVp_RCEQ-41">
          <mxGeometry x="120" y="17.86" width="74.99" height="32.14" as="geometry" />
        </mxCell>
        <mxCell id="XAGscL4qcdgKMVp_RCEQ-43" value="&amp;lt;&amp;lt;include&amp;gt;&amp;gt;" style="endArrow=open;endSize=12;dashed=1;html=1;rounded=0;exitX=0.5;exitY=0;exitDx=0;exitDy=0;entryX=0.5;entryY=1;entryDx=0;entryDy=0;" edge="1" parent="XAGscL4qcdgKMVp_RCEQ-41" source="XAGscL4qcdgKMVp_RCEQ-44" target="XAGscL4qcdgKMVp_RCEQ-42">
          <mxGeometry width="160" relative="1" as="geometry">
            <mxPoint x="121" y="117" as="sourcePoint" />
            <mxPoint x="120" y="80" as="targetPoint" />
          </mxGeometry>
        </mxCell>
        <mxCell id="XAGscL4qcdgKMVp_RCEQ-44" value="Chat" style="ellipse;whiteSpace=wrap;html=1;" vertex="1" parent="XAGscL4qcdgKMVp_RCEQ-41">
          <mxGeometry x="120" y="90" width="74.99" height="32.14" as="geometry" />
        </mxCell>
        <mxCell id="XAGscL4qcdgKMVp_RCEQ-51" value="Message" style="ellipse;whiteSpace=wrap;html=1;" vertex="1" parent="XAGscL4qcdgKMVp_RCEQ-41">
          <mxGeometry x="35.010000000000005" y="141.43" width="74.99" height="32.14" as="geometry" />
        </mxCell>
        <mxCell id="XAGscL4qcdgKMVp_RCEQ-52" value="&amp;lt;&amp;lt;include&amp;gt;&amp;gt;" style="endArrow=open;endSize=12;dashed=1;html=1;rounded=0;exitX=0.5;exitY=0;exitDx=0;exitDy=0;entryX=0;entryY=0.5;entryDx=0;entryDy=0;" edge="1" parent="XAGscL4qcdgKMVp_RCEQ-41" source="XAGscL4qcdgKMVp_RCEQ-51" target="XAGscL4qcdgKMVp_RCEQ-44">
          <mxGeometry width="160" relative="1" as="geometry">
            <mxPoint x="119.5" y="180" as="sourcePoint" />
            <mxPoint x="119.5" y="140" as="targetPoint" />
          </mxGeometry>
        </mxCell>
        <mxCell id="XAGscL4qcdgKMVp_RCEQ-61" value="Write Message" style="ellipse;whiteSpace=wrap;html=1;" vertex="1" parent="XAGscL4qcdgKMVp_RCEQ-41">
          <mxGeometry x="35.00999999999999" y="210" width="74.99" height="32.14" as="geometry" />
        </mxCell>
        <mxCell id="XAGscL4qcdgKMVp_RCEQ-63" value="Read Messages" style="ellipse;whiteSpace=wrap;html=1;" vertex="1" parent="XAGscL4qcdgKMVp_RCEQ-41">
          <mxGeometry x="35.00999999999999" y="260" width="74.99" height="32.14" as="geometry" />
        </mxCell>
        <mxCell id="XAGscL4qcdgKMVp_RCEQ-65" style="edgeStyle=orthogonalEdgeStyle;rounded=0;orthogonalLoop=1;jettySize=auto;html=1;entryX=0;entryY=0.5;entryDx=0;entryDy=0;endArrow=none;endFill=0;" edge="1" parent="1" source="XAGscL4qcdgKMVp_RCEQ-64" target="XAGscL4qcdgKMVp_RCEQ-61">
          <mxGeometry relative="1" as="geometry" />
        </mxCell>
        <mxCell id="XAGscL4qcdgKMVp_RCEQ-66" style="edgeStyle=orthogonalEdgeStyle;rounded=0;orthogonalLoop=1;jettySize=auto;html=1;entryX=0;entryY=0.5;entryDx=0;entryDy=0;endArrow=none;endFill=0;" edge="1" parent="1" source="XAGscL4qcdgKMVp_RCEQ-64" target="XAGscL4qcdgKMVp_RCEQ-63">
          <mxGeometry relative="1" as="geometry" />
        </mxCell>
        <mxCell id="XAGscL4qcdgKMVp_RCEQ-64" value="Participator" style="shape=umlActor;verticalLabelPosition=bottom;verticalAlign=top;html=1;" vertex="1" parent="1">
          <mxGeometry x="310" y="-140" width="30" height="60" as="geometry" />
        </mxCell>
        <mxCell id="XAGscL4qcdgKMVp_RCEQ-67" value="" style="group" vertex="1" connectable="0" parent="1">
          <mxGeometry x="-348" y="-357.5" width="225" height="315" as="geometry" />
        </mxCell>
        <mxCell id="XAGscL4qcdgKMVp_RCEQ-68" value="" style="rounded=0;whiteSpace=wrap;html=1;rotation=90;" vertex="1" parent="XAGscL4qcdgKMVp_RCEQ-67">
          <mxGeometry x="-40" y="47.5" width="310" height="220" as="geometry" />
        </mxCell>
        <mxCell id="XAGscL4qcdgKMVp_RCEQ-69" value="&amp;lt;&amp;lt;Subsystem&amp;gt;&amp;gt;&lt;br&gt;&lt;b&gt;Account&lt;/b&gt;" style="text;html=1;align=center;verticalAlign=middle;resizable=0;points=[];autosize=1;strokeColor=none;fillColor=none;" vertex="1" parent="XAGscL4qcdgKMVp_RCEQ-67">
          <mxGeometry x="3" width="105" height="41" as="geometry" />
        </mxCell>
        <mxCell id="XAGscL4qcdgKMVp_RCEQ-70" value="Account&lt;br&gt;" style="ellipse;whiteSpace=wrap;html=1;" vertex="1" parent="XAGscL4qcdgKMVp_RCEQ-67">
          <mxGeometry x="148" y="132.5" width="74.99" height="32.14" as="geometry" />
        </mxCell>
        <mxCell id="XAGscL4qcdgKMVp_RCEQ-71" value="&amp;lt;&amp;lt;include&amp;gt;&amp;gt;" style="endArrow=open;endSize=12;dashed=1;html=1;rounded=0;exitX=0.5;exitY=1;exitDx=0;exitDy=0;entryX=0.5;entryY=0;entryDx=0;entryDy=0;" edge="1" parent="XAGscL4qcdgKMVp_RCEQ-67" source="XAGscL4qcdgKMVp_RCEQ-80" target="XAGscL4qcdgKMVp_RCEQ-70">
          <mxGeometry width="160" relative="1" as="geometry">
            <mxPoint x="157.49500000000012" y="90" as="sourcePoint" />
            <mxPoint x="120" y="80" as="targetPoint" />
          </mxGeometry>
        </mxCell>
        <mxCell id="XAGscL4qcdgKMVp_RCEQ-77" value="Create Account" style="ellipse;whiteSpace=wrap;html=1;" vertex="1" parent="XAGscL4qcdgKMVp_RCEQ-67">
          <mxGeometry x="18" y="261.5" width="74.99" height="32.14" as="geometry" />
        </mxCell>
        <mxCell id="XAGscL4qcdgKMVp_RCEQ-80" value="Personal information" style="ellipse;whiteSpace=wrap;html=1;" vertex="1" parent="XAGscL4qcdgKMVp_RCEQ-67">
          <mxGeometry x="148" y="66.36000000000001" width="74.99" height="32.14" as="geometry" />
        </mxCell>
        <mxCell id="XAGscL4qcdgKMVp_RCEQ-82" value="Delete Account" style="ellipse;whiteSpace=wrap;html=1;" vertex="1" parent="XAGscL4qcdgKMVp_RCEQ-67">
          <mxGeometry x="18" y="223.5" width="74.99" height="32.14" as="geometry" />
        </mxCell>
        <mxCell id="XAGscL4qcdgKMVp_RCEQ-86" value="Notifications" style="ellipse;whiteSpace=wrap;html=1;" vertex="1" parent="XAGscL4qcdgKMVp_RCEQ-67">
          <mxGeometry x="7.000000000000005" y="102" width="74.99" height="32.14" as="geometry" />
        </mxCell>
        <mxCell id="XAGscL4qcdgKMVp_RCEQ-88" value="Settings" style="ellipse;whiteSpace=wrap;html=1;" vertex="1" parent="XAGscL4qcdgKMVp_RCEQ-67">
          <mxGeometry x="148" y="192.43" width="74.99" height="32.14" as="geometry" />
        </mxCell>
        <mxCell id="XAGscL4qcdgKMVp_RCEQ-89" value="&amp;lt;&amp;lt;include&amp;gt;&amp;gt;" style="endArrow=open;endSize=12;dashed=1;html=1;rounded=0;exitX=0.5;exitY=0;exitDx=0;exitDy=0;entryX=0.5;entryY=1;entryDx=0;entryDy=0;" edge="1" parent="XAGscL4qcdgKMVp_RCEQ-67" source="XAGscL4qcdgKMVp_RCEQ-88" target="XAGscL4qcdgKMVp_RCEQ-70">
          <mxGeometry x="-0.0014" width="160" relative="1" as="geometry">
            <mxPoint x="55.49000000000001" y="197" as="sourcePoint" />
            <mxPoint x="131.49" y="174" as="targetPoint" />
            <mxPoint as="offset" />
          </mxGeometry>
        </mxCell>
        <mxCell id="XAGscL4qcdgKMVp_RCEQ-84" value="Events" style="ellipse;whiteSpace=wrap;html=1;" vertex="1" parent="XAGscL4qcdgKMVp_RCEQ-67">
          <mxGeometry x="7" y="156.5" width="74.99" height="32.14" as="geometry" />
        </mxCell>
        <mxCell id="XAGscL4qcdgKMVp_RCEQ-85" value="&amp;lt;&amp;lt;include&amp;gt;&amp;gt;" style="endArrow=open;endSize=12;dashed=1;html=1;rounded=0;entryX=0.084;entryY=0.805;entryDx=0;entryDy=0;exitX=1;exitY=0.5;exitDx=0;exitDy=0;entryPerimeter=0;" edge="1" parent="XAGscL4qcdgKMVp_RCEQ-67" source="XAGscL4qcdgKMVp_RCEQ-84" target="XAGscL4qcdgKMVp_RCEQ-70">
          <mxGeometry x="-0.0012" width="160" relative="1" as="geometry">
            <mxPoint x="270" y="133.5" as="sourcePoint" />
            <mxPoint x="80.50999999999999" y="52.5" as="targetPoint" />
            <mxPoint as="offset" />
          </mxGeometry>
        </mxCell>
        <mxCell id="XAGscL4qcdgKMVp_RCEQ-90" value="&amp;lt;&amp;lt;include&amp;gt;&amp;gt;" style="endArrow=open;endSize=12;dashed=1;html=1;rounded=0;entryX=0;entryY=0;entryDx=0;entryDy=0;exitX=1;exitY=0.5;exitDx=0;exitDy=0;" edge="1" parent="XAGscL4qcdgKMVp_RCEQ-67" source="XAGscL4qcdgKMVp_RCEQ-86" target="XAGscL4qcdgKMVp_RCEQ-70">
          <mxGeometry x="-0.0012" width="160" relative="1" as="geometry">
            <mxPoint x="85.00999999999999" y="68.13" as="sourcePoint" />
            <mxPoint x="157.01" y="53.129999999999995" as="targetPoint" />
            <mxPoint as="offset" />
          </mxGeometry>
        </mxCell>
        <mxCell id="XAGscL4qcdgKMVp_RCEQ-79" style="edgeStyle=orthogonalEdgeStyle;rounded=0;orthogonalLoop=1;jettySize=auto;html=1;entryX=0;entryY=0.5;entryDx=0;entryDy=0;endArrow=none;endFill=0;" edge="1" parent="1" source="XAGscL4qcdgKMVp_RCEQ-78" target="XAGscL4qcdgKMVp_RCEQ-77">
          <mxGeometry relative="1" as="geometry" />
        </mxCell>
        <mxCell id="XAGscL4qcdgKMVp_RCEQ-83" style="edgeStyle=orthogonalEdgeStyle;rounded=0;orthogonalLoop=1;jettySize=auto;html=1;entryX=0;entryY=0.5;entryDx=0;entryDy=0;endArrow=none;endFill=0;startArrow=none;startFill=0;" edge="1" parent="1" source="XAGscL4qcdgKMVp_RCEQ-78" target="XAGscL4qcdgKMVp_RCEQ-82">
          <mxGeometry relative="1" as="geometry" />
        </mxCell>
        <mxCell id="XAGscL4qcdgKMVp_RCEQ-78" value="User" style="shape=umlActor;verticalLabelPosition=bottom;verticalAlign=top;html=1;" vertex="1" parent="1">
          <mxGeometry x="-456" y="-130" width="30" height="60" as="geometry" />
        </mxCell>
      </root>
    </mxGraphModel>
  </diagram>
</mxfile>
